<svg id="Capa_1" enable-background="new 0 0 512.018 512.018" height="512" viewBox="0 0 512.018 512.018" width="512" xmlns="http://www.w3.org/2000/svg"><g><path d="m512.018 200.009c0 43.58-36.247 79-80 79h-32.12c.3 23.37-3.21 65.54-29.27 91.61-35.98 35.979-111.42 36.39-114.61 36.39-12.481 0-19.48-14.4-11.84-24.21.3-.38 26.62-34.81 30.3-68.54-21.58 3.16-43.86 4.75-66.46 4.75-65.503 0-118.559-33.669-152.06-87-9.36-14.89-13.66-25.89-13.94-26.62-3.757-9.785 3.45-20.38 14-20.38h441c8.28 0 15 6.72 15 15z" fill="#00ec89"/><path d="m505.128 232.009c-12.391 27.289-40.391 47-73.11 47h-32.12c.3 23.37-3.21 65.54-29.27 91.61-35.98 35.979-111.42 36.39-114.61 36.39-12.481 0-19.48-14.4-11.84-24.21.3-.38 26.62-34.81 30.3-68.54-21.58 3.16-43.86 4.75-66.46 4.75-65.503 0-118.559-33.669-152.06-87z" fill="#00a763"/><path d="m128.018 249.009h-26.854c-37.576 0-68.146 30.57-68.146 68.146v26.854c0 8.284 6.716 15 15 15h26.854c37.576 0 68.146-30.57 68.146-68.146v-26.854c0-8.284-6.716-15-15-15z" fill="#00864f"/><path d="m398.903 262.149c-1.576-12.606-17.207-17.672-25.871-8.353-32.98 35.477-84.86 43.121-85.35 43.19-7.067.963-12.478 6.77-12.942 13.887-2.281 35.008-30.29 71.575-30.561 71.926-7.654 9.84-.619 24.21 11.839 24.21 3.193 0 78.627-.414 114.606-36.394 36.766-36.764 28.642-105.556 28.279-108.466z" fill="#00864f"/><path d="m396.881 192.291c-.558-.93-14.032-23.034-45.346-44.631-28.213-19.457-77.402-42.651-151.516-42.651-65.616 0-115.387 23.039-145.586 42.366-32.905 21.059-50.33 42.282-51.056 43.175-7.951 9.787-.966 24.459 11.642 24.459h369c11.646 0 18.851-12.735 12.862-22.718z" fill="#ff7d47"/></g></svg>